<svg width="46" height="46" viewBox="0 0 46 46" fill="none" xmlns="http://www.w3.org/2000/svg">
<path d="M23.0524 0H22.9476C10.274 0 0 10.274 0 22.9476V23.0524C0 35.726 10.274 46 22.9476 46H23.0524C35.726 46 46 35.726 46 23.0524V22.9476C46 10.274 35.726 0 23.0524 0Z" fill="#00E510"/>
<path d="M27.4827 29.7276C21.5955 29.7276 16.8058 24.9363 16.8042 19.0491C16.8058 17.5568 18.021 16.3433 19.5101 16.3433C19.6632 16.3433 19.8147 16.3562 19.9597 16.3819C20.2788 16.4351 20.5818 16.5431 20.8606 16.7059C20.9009 16.73 20.9283 16.7687 20.9347 16.8139L21.5568 20.7349C21.5649 20.7816 21.5504 20.8267 21.5198 20.8606C21.1765 21.2409 20.7381 21.5149 20.2498 21.6519L20.0145 21.718L20.1031 21.9452C20.9057 23.9887 22.5399 25.6213 24.585 26.4271L24.8123 26.5173L24.8783 26.282C25.0153 25.7937 25.2893 25.3554 25.6696 25.0121C25.697 24.9863 25.7341 24.9734 25.7712 24.9734C25.7792 24.9734 25.7873 24.9734 25.797 24.975L29.718 25.5971C29.7647 25.6052 29.8034 25.6309 29.8276 25.6712C29.9887 25.95 30.0967 26.2546 30.1515 26.5737C30.1773 26.7155 30.1886 26.8654 30.1886 27.0217C30.1886 28.5125 28.975 29.726 27.4827 29.7276Z" fill="#FDFDFD"/>
<path d="M37.9225 21.7083C37.6051 18.1209 35.9612 14.7929 33.294 12.3384C30.6107 9.86947 27.1296 8.50928 23.489 8.50928C15.4987 8.50928 8.9975 15.0105 8.9975 23.0008C8.9975 25.6825 9.73721 28.2949 11.1377 30.5705L8.0144 37.4843L18.0144 36.419C19.7533 37.1314 21.5938 37.4924 23.4874 37.4924C23.9854 37.4924 24.4963 37.4666 25.0088 37.4134C25.46 37.365 25.9161 37.2941 26.3641 37.2039C33.0555 35.8517 37.9403 29.913 37.979 23.0782V23.0008C37.979 22.5657 37.9596 22.1305 37.9209 21.7083H37.9225ZM18.3996 33.3844L12.867 33.9742L14.5189 30.3143L14.1885 29.8711C14.1643 29.8388 14.1401 29.8066 14.1127 29.7695C12.6784 27.7889 11.9209 25.4488 11.9209 23.0024C11.9209 16.6237 17.1103 11.4343 23.489 11.4343C29.4648 11.4343 34.5301 16.0967 35.0184 22.0484C35.0442 22.3675 35.0587 22.6882 35.0587 23.004C35.0587 23.0943 35.0571 23.1829 35.0555 23.278C34.933 28.614 31.2054 33.1459 25.9902 34.2998C25.5922 34.3884 25.1844 34.4561 24.7783 34.4996C24.3561 34.548 23.9225 34.5721 23.4922 34.5721C21.9596 34.5721 20.4705 34.2756 19.0636 33.689C18.9072 33.6261 18.7541 33.5584 18.6107 33.4891L18.4012 33.3876L18.3996 33.3844Z" fill="#FDFDFD"/>
</svg>
