<svg width="47" height="46" viewBox="0 0 47 46" fill="none" xmlns="http://www.w3.org/2000/svg">
<path d="M23.5524 0H23.4476C10.774 0 0.5 10.274 0.5 22.9476V23.0524C0.5 35.726 10.774 46 23.4476 46H23.5524C36.226 46 46.5 35.726 46.5 23.0524V22.9476C46.5 10.274 36.226 0 23.5524 0Z" fill="#00B0F2"/>
<path d="M9.21234 22.2144C9.2768 22.1822 9.3413 22.1516 9.40415 22.1226C10.4968 21.6165 11.604 21.1427 12.7095 20.6689C12.7692 20.6689 12.8691 20.5996 12.9255 20.577C13.0109 20.54 13.0963 20.5045 13.1817 20.4675L13.6733 20.2563C14.0021 20.1161 14.3292 19.9759 14.658 19.8357C15.3139 19.5553 15.9698 19.2749 16.6257 18.9928C17.9376 18.432 19.251 17.8696 20.5629 17.3087C21.8747 16.7479 23.1882 16.1854 24.5 15.6246C25.8119 15.0638 27.1253 14.5013 28.4372 13.9405C29.749 13.3796 31.0625 12.8172 32.3743 12.2563C32.666 12.1306 32.9819 11.9437 33.2946 11.8889C33.5573 11.8422 33.8135 11.7519 34.0778 11.7019C34.579 11.6069 35.1318 11.5682 35.612 11.7761C35.778 11.8486 35.9311 11.9501 36.0584 12.0774C36.6676 12.6802 36.5822 13.6697 36.4533 14.5174C35.5556 20.4256 34.658 26.3353 33.7587 32.2434C33.6362 33.0541 33.4686 33.9437 32.8288 34.4562C32.2873 34.8897 31.5169 34.938 30.8481 34.7543C30.1793 34.569 29.5895 34.1806 29.0109 33.7986C26.6112 32.2096 24.21 30.6206 21.8103 29.0315C21.2398 28.6544 20.6048 28.1613 20.6112 27.4763C20.6145 27.0638 20.861 26.6963 21.1124 26.3692C23.1979 23.6488 26.2067 21.7793 28.4452 19.1846C28.7611 18.8188 29.0093 18.158 28.5758 17.9469C28.3179 17.8212 28.0214 17.992 27.7861 18.1548C24.8272 20.2096 21.8699 22.266 18.911 24.3208C17.9456 24.9912 16.9336 25.681 15.77 25.8454C14.7289 25.9936 13.6814 25.7036 12.6741 25.407C11.8296 25.1588 10.9867 24.9042 10.1471 24.6415C9.70066 24.5029 9.23974 24.353 8.89486 24.0388C8.54997 23.7245 8.35177 23.1959 8.55967 22.7769C8.69021 22.5142 8.94324 22.3482 9.20915 22.2128L9.21234 22.2144Z" fill="#FEFFFC"/>
</svg>
