<svg width="46" height="46" viewBox="0 0 46 46" fill="none" xmlns="http://www.w3.org/2000/svg">
<path d="M23.0524 0H22.9476C10.274 0 0 10.274 0 22.9476V23.0524C0 35.726 10.274 46 22.9476 46H23.0524C35.726 46 46 35.726 46 23.0524V22.9476C46 10.274 35.726 0 23.0524 0Z" fill="url(#paint0_linear_2413_6180)"/>
<path d="M30.1177 9.3584H15.884C11.9517 9.3584 8.75269 12.5574 8.75269 16.4897V29.5115C8.75269 33.4438 11.9517 36.6428 15.884 36.6428H30.1177C34.05 36.6428 37.2491 33.4438 37.2491 29.5115V16.4897C37.2491 12.5574 34.05 9.3584 30.1177 9.3584ZM11.2684 16.4897C11.2684 13.945 13.3393 11.8741 15.884 11.8741H30.1177C32.6624 11.8741 34.7334 13.945 34.7334 16.4897V29.5115C34.7334 32.0562 32.6624 34.1271 30.1177 34.1271H15.884C13.3393 34.1271 11.2684 32.0562 11.2684 29.5115V16.4897Z" fill="white"/>
<path d="M23.0008 29.6324C26.6575 29.6324 29.6342 26.6574 29.6342 22.9991C29.6342 19.3407 26.6591 16.3657 23.0008 16.3657C19.3425 16.3657 16.3674 19.3407 16.3674 22.9991C16.3674 26.6574 19.3425 29.6324 23.0008 29.6324ZM23.0008 18.883C25.2715 18.883 27.1184 20.7299 27.1184 23.0007C27.1184 25.2714 25.2715 27.1183 23.0008 27.1183C20.73 27.1183 18.8831 25.2714 18.8831 23.0007C18.8831 20.7299 20.73 18.883 23.0008 18.883Z" fill="white"/>
<path d="M30.2482 17.4373C31.2329 17.4373 32.0355 16.6364 32.0355 15.6501C32.0355 14.6638 31.2345 13.8628 30.2482 13.8628C29.2619 13.8628 28.4609 14.6638 28.4609 15.6501C28.4609 16.6364 29.2619 17.4373 30.2482 17.4373Z" fill="white"/>
<defs>
<linearGradient id="paint0_linear_2413_6180" x1="6.72039" y1="39.2796" x2="39.2796" y2="6.722" gradientUnits="userSpaceOnUse">
<stop stop-color="#FAAD4F"/>
<stop offset="0.35" stop-color="#DD2A7B"/>
<stop offset="0.62" stop-color="#9537B0"/>
<stop offset="1" stop-color="#515BD4"/>
</linearGradient>
</defs>
</svg>
