<svg width="285" height="229" viewBox="0 0 285 229" fill="none" xmlns="http://www.w3.org/2000/svg">
<g clip-path="url(#clip0_599_4041)">
<path d="M179.208 208.202L174.9 208.202L172.85 191.383L179.209 191.383L179.208 208.202Z" fill="#9E616A"/>
<path d="M180.307 212.428L166.415 212.428V212.25C166.415 210.799 166.985 209.407 167.999 208.381C169.013 207.354 170.388 206.778 171.822 206.778H171.823L180.307 206.778L180.307 212.428Z" fill="#2F2E41"/>
<path d="M163.746 208.202L159.438 208.202L157.388 191.383L163.747 191.383L163.746 208.202Z" fill="#9E616A"/>
<path d="M164.845 212.428L150.953 212.428V212.25C150.953 210.799 151.523 209.407 152.537 208.381C153.551 207.354 154.926 206.778 156.36 206.778H156.36L164.845 206.778L164.845 212.428Z" fill="#2F2E41"/>
<path d="M113.569 90.3486C113.913 90.8278 114.357 91.2249 114.869 91.5117C115.382 91.7985 115.95 91.9681 116.534 92.0086C117.118 92.0492 117.704 91.9596 118.25 91.7461C118.796 91.5327 119.29 91.2007 119.695 90.7735L128.22 94.1428L131.507 89.3989L119.402 84.812C118.648 84.1697 117.687 83.8299 116.701 83.8568C115.716 83.8837 114.775 84.2755 114.056 84.958C113.337 85.6404 112.89 86.5661 112.8 87.5597C112.71 88.5532 112.984 89.5455 113.569 90.3486Z" fill="#9E616A"/>
<path d="M163.691 119.091L152.467 122.796L156.217 203.247L164.879 203.464L169.312 146.729L170.319 203.24L181.03 203.838L184.979 119.091H163.691Z" fill="#2F2E41"/>
<path d="M156.118 71.6663L184.926 65.3314L188.129 90.4363L185.462 102.432L186.53 120.661C186.53 120.661 163.752 132.135 152.467 122.796C152.467 122.796 161.537 98.6857 156.28 87.3989L156.118 71.6663Z" fill="#CCCCCC"/>
<path d="M161.107 75.2172L156.118 71.6662C156.118 71.6662 155.824 71.2531 151.666 76.1723C147.509 81.0914 139.075 88.9161 139.075 88.9161L125.018 83.5811L122.457 93.1575L138.794 100.863L161.923 85.2292L161.107 75.2172Z" fill="#CCCCCC"/>
<path d="M186.535 130.072C187.065 129.818 187.533 129.451 187.907 128.995C188.28 128.539 188.551 128.005 188.699 127.432C188.847 126.859 188.869 126.26 188.764 125.677C188.659 125.094 188.428 124.541 188.089 124.058L192.948 116.209L188.955 112.057L182.247 123.24C181.483 123.87 180.974 124.762 180.817 125.747C180.66 126.732 180.864 127.741 181.393 128.583C181.922 129.425 182.737 130.042 183.685 130.316C184.632 130.591 185.647 130.503 186.535 130.072Z" fill="#9E616A"/>
<path d="M180.432 70.277L184.925 65.3314C184.925 65.3314 189.932 63.5668 194.022 72.6848C198.112 81.8028 202.681 100.298 202.681 100.298L192 121.121L183.704 117.37L192 100.151L183.222 87.3989L180.432 70.277Z" fill="#CCCCCC"/>
<path d="M172.813 63.2722C177.345 60.7651 179.01 55.0147 176.533 50.4284C174.056 45.8421 168.374 44.1565 163.843 46.6636C159.311 49.1707 157.646 54.9211 160.123 59.5074C162.6 64.0938 168.282 65.7793 172.813 63.2722Z" fill="#9E616A"/>
<path d="M176.214 46.5049C175.771 44.6256 174.223 43.1423 172.442 42.4468C170.662 41.7512 168.679 41.7579 166.797 42.0815C163.673 42.6187 160.756 43.982 157.882 45.3317L160.098 46.4043L157.041 46.5818L159.403 47.8182C158.772 48.3041 158.292 48.9629 158.02 49.7165C157.748 50.47 157.695 51.2868 157.868 52.0697C157.99 52.5821 158.315 53.1468 158.835 53.1645C159.464 53.1859 159.793 52.4439 160.233 51.9888C160.819 51.3833 161.744 51.2489 162.574 51.363C163.403 51.4771 164.19 51.8002 165.009 51.9788C166.044 52.1971 167.113 52.185 168.143 51.9435C169.173 51.702 170.139 51.2368 170.973 50.5801L173.919 57.7589C173.891 57.4882 173.926 57.2146 174.02 56.9596C174.114 56.7045 174.264 56.4749 174.461 56.2887C174.657 56.1024 174.893 55.9646 175.15 55.8859C175.408 55.8072 175.679 55.7898 175.945 55.8351C176.21 55.8803 176.461 55.987 176.679 56.1468C176.897 56.3066 177.075 56.5151 177.2 56.7561C177.325 56.9972 177.393 57.2642 177.399 57.5363C177.405 57.8084 177.349 58.0783 177.235 58.3248C178.51 56.3783 179.536 54.1667 179.571 51.8314C179.606 49.4961 178.462 47.0359 176.367 46.056" fill="#2F2E41"/>
<path d="M67.8446 191.521L63.8614 197.859L66.1815 189.608C61.2829 184.435 54.5014 180.651 54.5014 180.651C54.5014 180.651 46.1511 194.541 48.3986 203.085C50.6461 211.629 56.4494 213.26 62.6403 211.592C68.8311 209.924 73.065 205.588 70.8175 197.044C70.3172 195.142 69.2306 193.275 67.8446 191.521Z" fill="#F2F2F2"/>
<path d="M62.5745 198.491L62.6853 198.912C63.9483 203.814 64.1372 207.854 63.2441 210.975C63.2318 211.02 63.217 211.065 63.2047 211.11L62.9965 211.048L62.797 210.986C63.8087 207.603 63.3572 203.328 62.2567 199.052C62.2225 198.914 62.1878 198.774 62.149 198.635C61.6674 196.829 61.0772 195.03 60.4349 193.301C60.3863 193.166 60.3351 193.03 60.284 192.895C59.4245 190.617 58.4853 188.472 57.6151 186.623C57.5542 186.492 57.4912 186.362 57.4288 186.234C55.9433 183.111 54.6841 180.898 54.4011 180.409C54.3676 180.349 54.348 180.316 54.3438 180.309L54.5246 180.2L54.5262 180.197L54.7091 180.087C54.7134 180.095 54.7796 180.205 54.8954 180.41C55.333 181.176 56.4953 183.263 57.8353 186.068C57.8951 186.195 57.9581 186.325 58.019 186.456C58.7267 187.956 59.477 189.643 60.1906 191.433C60.3706 191.882 60.5428 192.327 60.7071 192.767C60.7603 192.903 60.8115 193.038 60.86 193.173C61.5547 195.042 62.1262 196.815 62.5745 198.491Z" fill="white"/>
<path d="M57.8354 186.068C57.7023 186.124 57.5672 186.181 57.4289 186.234C57.0534 186.378 56.6709 186.502 56.2829 186.607C54.6298 187.055 52.8984 187.122 51.2164 186.802C51.1589 186.936 51.1014 187.07 51.0425 187.206C52.8163 187.559 54.6463 187.497 56.3926 187.024C56.8068 186.912 57.2149 186.779 57.6152 186.623C57.7514 186.571 57.8866 186.514 58.0191 186.456C59.1149 185.984 60.1334 185.346 61.0399 184.564C60.9212 184.473 60.805 184.384 60.6915 184.296C59.8309 185.026 58.8684 185.623 57.8354 186.068Z" fill="white"/>
<path d="M60.7071 192.767C60.5672 192.814 60.4261 192.856 60.284 192.895C60.2413 192.908 60.1959 192.921 60.1527 192.932C58.3608 193.415 56.48 193.452 54.6709 193.041C52.8617 192.629 51.1777 191.78 49.7625 190.568C49.7125 190.713 49.6624 190.858 49.615 191.005C51.0781 192.224 52.8071 193.072 54.6587 193.48C56.5103 193.887 58.4312 193.843 60.2624 193.349C60.3201 193.334 60.3777 193.318 60.4349 193.301C60.5785 193.26 60.7196 193.217 60.8601 193.173C63.0295 192.466 64.952 191.142 66.3976 189.359C66.2993 189.253 66.201 189.148 66.1007 189.043C64.6992 190.789 62.8247 192.084 60.7071 192.767Z" fill="white"/>
<path d="M62.5745 198.491C62.4336 198.543 62.2916 198.59 62.149 198.635C61.9962 198.683 61.8428 198.729 61.6883 198.77C59.2796 199.416 56.7291 199.255 54.4184 198.311C52.1078 197.367 50.1614 195.691 48.8706 193.534C48.8224 193.728 48.7735 193.92 48.7294 194.113C50.1043 196.241 52.107 197.877 54.453 198.788C56.7991 199.699 59.3691 199.839 61.7979 199.187C61.9525 199.146 62.1064 199.102 62.2567 199.052C62.4018 199.009 62.5438 198.962 62.6853 198.912C65.5372 197.897 67.9014 195.823 69.299 193.109C69.2151 192.967 69.1256 192.828 69.0356 192.687C67.7096 195.398 65.392 197.48 62.5745 198.491Z" fill="white"/>
<path d="M223.214 192.182L219.288 198.428L221.575 190.297C216.747 185.199 210.064 181.47 210.064 181.47C210.064 181.47 201.835 195.158 204.05 203.578C206.265 211.998 211.984 213.605 218.085 211.961C224.186 210.318 228.358 206.045 226.143 197.625C225.65 195.751 224.58 193.911 223.214 192.182Z" fill="#F2F2F2"/>
<path d="M218.02 199.051L218.129 199.466C219.374 204.297 219.56 208.277 218.68 211.353C218.668 211.398 218.653 211.442 218.641 211.487L218.436 211.425L218.239 211.364C219.237 208.03 218.792 203.818 217.707 199.604C217.673 199.468 217.639 199.33 217.601 199.192C217.126 197.413 216.545 195.64 215.912 193.936C215.864 193.803 215.813 193.67 215.763 193.536C214.916 191.291 213.99 189.177 213.133 187.355C213.073 187.226 213.011 187.098 212.949 186.971C211.485 183.894 210.244 181.713 209.966 181.232C209.933 181.172 209.913 181.14 209.909 181.133L210.087 181.025L210.089 181.023L210.269 180.915C210.273 180.922 210.339 181.03 210.453 181.232C210.884 181.988 212.029 184.044 213.35 186.808C213.409 186.933 213.471 187.062 213.531 187.191C214.228 188.669 214.968 190.331 215.671 192.095C215.848 192.538 216.018 192.976 216.18 193.41C216.232 193.543 216.283 193.677 216.331 193.81C217.015 195.652 217.578 197.399 218.02 199.051Z" fill="white"/>
<path d="M213.35 186.808C213.219 186.864 213.086 186.919 212.949 186.971C212.579 187.113 212.202 187.236 211.82 187.339C210.191 187.781 208.485 187.846 206.827 187.532C206.77 187.664 206.714 187.796 206.656 187.93C208.404 188.277 210.207 188.216 211.928 187.75C212.336 187.64 212.738 187.508 213.133 187.355C213.267 187.304 213.4 187.248 213.531 187.191C214.611 186.725 215.615 186.097 216.508 185.326C216.391 185.237 216.276 185.149 216.164 185.062C215.316 185.781 214.368 186.37 213.35 186.808Z" fill="white"/>
<path d="M216.18 193.41C216.042 193.456 215.903 193.498 215.763 193.536C215.721 193.549 215.676 193.561 215.634 193.573C213.868 194.049 212.014 194.085 210.231 193.679C208.448 193.274 206.789 192.438 205.394 191.242C205.345 191.386 205.296 191.529 205.249 191.673C206.691 192.874 208.395 193.71 210.219 194.112C212.044 194.514 213.937 194.47 215.742 193.984C215.798 193.968 215.855 193.953 215.912 193.936C216.053 193.895 216.192 193.853 216.331 193.809C218.469 193.113 220.363 191.808 221.788 190.051C221.691 189.947 221.594 189.843 221.495 189.74C220.114 191.461 218.267 192.736 216.18 193.41Z" fill="white"/>
<path d="M218.02 199.051C217.881 199.101 217.741 199.148 217.601 199.192C217.45 199.24 217.299 199.285 217.147 199.326C214.773 199.962 212.26 199.804 209.983 198.874C207.706 197.943 205.787 196.292 204.515 194.166C204.468 194.357 204.42 194.546 204.376 194.736C205.731 196.834 207.705 198.446 210.017 199.344C212.329 200.241 214.861 200.379 217.255 199.737C217.407 199.696 217.559 199.653 217.707 199.604C217.85 199.561 217.99 199.514 218.129 199.466C220.94 198.465 223.27 196.421 224.647 193.747C224.564 193.606 224.476 193.47 224.387 193.331C223.081 196.003 220.797 198.055 218.02 199.051Z" fill="white"/>
<path d="M141.974 37.0086C141.974 22.0684 131.683 9.95697 118.988 9.95697C106.293 9.95697 96.002 22.0684 96.002 37.0086C96.002 50.5587 104.467 61.7817 115.514 63.7529V66.3022C115.514 66.7838 115.703 67.2456 116.039 67.5862C116.375 67.9267 116.832 68.118 117.308 68.118H120.669C121.145 68.118 121.601 67.9267 121.937 67.5862C122.274 67.2456 122.463 66.7838 122.463 66.3022V63.7529C133.509 61.7817 141.974 50.5588 141.974 37.0086Z" fill="#6C63FF"/>
<path d="M114.961 65.9337C115.68 65.2501 116.537 64.7321 117.473 64.4154C118.408 64.0986 119.401 63.9905 120.382 64.0985C121.37 64.2145 122.319 64.5612 123.152 65.1114C123.986 65.6615 124.682 66.4001 125.185 67.2689C125.689 68.1118 126.005 69.0556 126.112 70.0347C126.219 71.0137 126.115 72.0047 125.806 72.9388C125.201 74.8017 123.917 76.352 122.601 77.7492C121.219 79.2151 119.717 80.567 118.418 82.1119C116.277 84.6745 114.782 87.7245 114.061 91.0004C113.34 94.2764 113.415 97.6804 114.279 100.921C115.418 105.028 117.771 108.684 121.022 111.399C121.434 111.74 121.859 112.066 122.297 112.375C122.803 112.733 123.282 111.893 122.78 111.538C119.251 109.011 116.643 105.378 115.359 101.2C114.386 97.9444 114.261 94.4894 114.998 91.1707C115.734 87.852 117.306 84.7827 119.562 82.261C120.932 80.7303 122.465 79.36 123.835 77.8288C125.147 76.362 126.343 74.7071 126.855 72.7691C127.114 71.7839 127.179 70.7564 127.044 69.7459C126.91 68.7353 126.579 67.7617 126.071 66.881C125.566 65.9807 124.882 65.1958 124.063 64.5754C123.244 63.955 122.307 63.5126 121.311 63.2758C119.307 62.835 117.212 63.202 115.472 64.299C115.045 64.5743 114.647 64.8923 114.284 65.2483C113.839 65.6818 114.517 66.3668 114.961 65.9337Z" fill="#3F3D56"/>
<path d="M53.3973 25.6806C46.3641 9.31658 29.3905 1.01357 15.4856 7.13537C1.5808 13.2572 -3.98967 31.4856 3.04358 47.8496C9.42242 62.6911 23.9779 70.9013 37.0047 67.7337L38.2049 70.526C38.4316 71.0534 38.856 71.4682 39.3849 71.6789C39.9137 71.8897 40.5036 71.8792 41.0248 71.6497L44.7062 70.0289C45.2274 69.7994 45.6372 69.3698 45.8454 68.8346C46.0536 68.2994 46.0432 67.7023 45.8165 67.1748L44.6164 64.3826C55.7873 56.8968 59.7762 40.5221 53.3973 25.6806Z" fill="#6C63FF"/>
<path d="M37.3556 70.3056C37.8126 69.2401 38.4856 68.2836 39.3312 67.4982C40.1767 66.7128 41.1758 66.1159 42.2638 65.7462C43.3321 65.3821 44.4662 65.2587 45.5866 65.3847C46.707 65.5106 47.7867 65.8829 48.75 66.4755C49.7424 67.0706 50.5981 67.8729 51.26 68.829C51.9219 69.7852 52.3749 70.8732 52.5886 72.0204C53.0795 74.6792 52.283 77.3874 51.3779 79.8629C50.4291 82.4577 49.2468 84.978 48.5871 87.6726C47.669 91.46 47.6504 95.4135 48.5329 99.2095C49.4154 103.006 51.1739 106.536 53.6642 109.512C56.8007 113.19 60.9316 115.86 65.5484 117.193C66.1147 117.355 66.687 117.492 67.2636 117.611C67.8654 117.734 68.1228 116.8 67.5182 116.676C62.7147 115.675 58.3371 113.188 54.9909 109.56C51.4437 105.678 49.3009 100.695 48.912 95.4221C48.7037 92.7508 48.9457 90.0631 49.6274 87.4738C50.3551 84.7416 51.587 82.1834 52.5157 79.5213C53.4019 76.981 54.0299 74.253 53.4731 71.5648C52.9612 69.1978 51.5421 67.1332 49.5274 65.8244C48.5618 65.1801 47.4793 64.7363 46.3428 64.519C45.2063 64.3017 44.0385 64.3152 42.9072 64.5587C40.5969 65.0884 38.5727 66.489 37.2466 68.4756C36.924 68.971 36.6511 69.4977 36.4321 70.0479C36.1966 70.6238 37.1228 70.8748 37.3556 70.3056Z" fill="#3F3D56"/>
<path d="M249.864 223.335L255.027 223.335L257.483 203.181L249.863 203.182L249.864 223.335Z" fill="#FFB6B6"/>
<path d="M248.547 221.629L258.714 221.629H258.715C260.433 221.629 262.081 222.32 263.296 223.55C264.511 224.779 265.194 226.447 265.194 228.186V228.399L248.548 228.4L248.547 221.629Z" fill="#2F2E41"/>
<path d="M219.308 218.892L224.23 220.468L232.578 202.002L225.313 199.677L219.308 218.892Z" fill="#FFB6B6"/>
<path d="M218.561 216.864L228.254 219.967L228.255 219.967C229.893 220.491 231.258 221.653 232.05 223.197C232.842 224.74 232.996 226.539 232.478 228.197L232.414 228.4L216.543 223.319L218.561 216.864Z" fill="#2F2E41"/>
<path d="M230.932 131.291L228.067 139.469L227.986 183.617L219.862 213.843L229.834 216.66L240.851 188.159L244.384 163.126L249.041 188.305L248.4 218.232H258.863L259.653 172.114C259.875 159.162 257.636 146.287 253.057 134.191L230.932 131.291Z" fill="#2F2E41"/>
<path d="M227.52 98.1656H244.433L251.5 105.318L253.611 134.883L228.067 139.044L219.862 110.834L224.33 98.8454L227.52 98.1656Z" fill="#CCCCCC"/>
<path d="M221.438 111.116L195.397 101.2L194.72 97.1012L211.142 83.0369L216.608 87.1864L206.701 98.1656L224.33 98.8454L221.438 111.116Z" fill="#CCCCCC"/>
<path d="M214.3 88.7894C216.626 88.7894 218.511 86.8813 218.511 84.5276C218.511 82.1738 216.626 80.2657 214.3 80.2657C211.975 80.2657 210.089 82.1738 210.089 84.5276C210.089 86.8813 211.975 88.7894 214.3 88.7894Z" fill="#FFB6B6"/>
<path d="M224.066 89.8966L225.969 81.2126C226.303 79.6831 226.931 78.2352 227.818 76.9517C228.704 75.6681 229.832 74.574 231.137 73.7319C232.442 72.8898 233.898 72.3162 235.422 72.044C236.946 71.7717 238.508 71.8061 240.019 72.1452C241.53 72.4843 242.96 73.1215 244.227 74.0202C245.494 74.919 246.574 76.0617 247.405 77.3832C248.236 78.7046 248.801 80.1788 249.069 81.7214C249.336 83.2641 249.301 84.845 248.964 86.3738L247.061 95.0579C246.97 95.4722 246.72 95.833 246.366 96.061C246.013 96.2891 245.584 96.3658 245.174 96.2744L225.268 91.8064C224.859 91.714 224.502 91.4611 224.277 91.1031C224.052 90.745 223.976 90.3112 224.066 89.8966Z" fill="#2F2E41"/>
<path d="M237.175 93.17C241.756 91.8268 244.393 86.9799 243.066 82.3443C241.739 77.7086 236.95 75.0395 232.369 76.3828C227.789 77.726 225.152 82.5728 226.479 87.2085C227.806 91.8441 232.595 94.5132 237.175 93.17Z" fill="#FFB6B6"/>
<path d="M223.097 81.2968C223.634 78.8569 225.106 76.7324 227.189 75.3894C229.273 74.0464 231.797 73.5946 234.209 74.133L235.925 74.5182C238.336 75.0622 240.435 76.5518 241.762 78.6602C243.089 80.7686 243.535 83.3236 243.003 85.7647L242.965 85.9384L239.338 85.1244L238.87 81.3412L237.854 84.7912L235.98 84.3706L235.743 82.4618L235.231 84.2025L223.059 81.4704L223.097 81.2968Z" fill="#2F2E41"/>
<path d="M231.815 94.3005C231.696 94.0289 231.655 93.7288 231.697 93.4348C231.739 93.1407 231.862 92.8646 232.053 92.6383C234.638 89.5457 238.602 83.6486 236.096 78.9008L235.916 78.5596L245.728 80.7618L242.461 95.6706L233.199 95.2617C233.105 95.2576 233.012 95.2452 232.92 95.2248C232.677 95.1701 232.45 95.0579 232.258 94.8972C232.066 94.7365 231.914 94.532 231.815 94.3005Z" fill="#2F2E41"/>
<path d="M243.761 98.3446L271.306 102.309L272.846 106.161L259.828 123.496L253.603 120.645L260.922 107.752L243.566 110.959L243.761 98.3446Z" fill="#CCCCCC"/>
<path d="M285 42.1457C285 24.3004 272.708 9.83398 257.544 9.83398C242.381 9.83398 230.089 24.3004 230.089 42.1457C230.089 58.3306 240.2 71.7357 253.394 74.0902V77.1352C253.394 77.7104 253.62 78.2621 254.022 78.6689C254.424 79.0756 254.969 79.3041 255.537 79.3042H259.552C260.12 79.3041 260.665 79.0756 261.067 78.6689C261.469 78.2621 261.695 77.7104 261.695 77.1352V74.0902C274.889 71.7357 285 58.3306 285 42.1457Z" fill="#6C63FF"/>
<path d="M252.668 76.6285C253.54 75.7992 254.579 75.1715 255.714 74.7889C256.849 74.4063 258.053 74.2779 259.242 74.4125C260.409 74.5518 261.531 74.9582 262.521 75.6011C263.51 76.2439 264.343 77.1063 264.954 78.1229C265.577 79.1262 265.977 80.2541 266.128 81.4289C266.279 82.6038 266.176 83.7978 265.827 84.9287C265.15 87.1487 263.663 89.0073 262.113 90.6734C260.46 92.4507 258.649 94.0759 257.068 95.9226C254.491 98.9535 252.68 102.572 251.791 106.468C250.902 110.364 250.96 114.42 251.962 118.288C253.303 123.259 256.135 127.687 260.068 130.959C260.546 131.352 261.038 131.728 261.543 132.085C262.049 132.443 262.528 131.603 262.026 131.248C257.814 128.235 254.695 123.907 253.146 118.927C251.969 115.041 251.803 110.913 252.662 106.942C253.521 102.971 255.376 99.2915 258.05 96.2581C259.675 94.4223 261.505 92.7868 263.148 90.9687C264.722 89.2277 266.167 87.273 266.814 84.9724C267.139 83.8104 267.234 82.5947 267.092 81.3955C266.95 80.1962 266.575 79.0374 265.987 77.986C265.403 76.9107 264.605 75.9694 263.644 75.2209C262.683 74.4724 261.579 73.933 260.402 73.6365C258.011 73.0801 255.5 73.5017 253.414 74.8095C252.902 75.137 252.425 75.5168 251.991 75.943C251.547 76.3772 252.224 77.0622 252.668 76.6285Z" fill="#3F3D56"/>
<path d="M255.989 128.425C258.314 128.425 260.2 126.517 260.2 124.163C260.2 121.809 258.314 119.901 255.989 119.901C253.663 119.901 251.778 121.809 251.778 124.163C251.778 126.517 253.663 128.425 255.989 128.425Z" fill="#FFB6B6"/>
<path d="M212.108 85.724C211.887 86.0774 211.352 86.0261 211.051 85.8051C210.634 85.4983 210.769 84.9075 211.056 84.5584C211.97 83.4487 213.48 84.6202 213.684 85.7222C213.76 86.2595 213.678 86.8075 213.449 87.2982C213.22 87.7889 212.853 88.2007 212.395 88.4827C211.353 89.1076 210 88.7942 209.104 88.0462C207.235 86.486 207.744 83.3621 209.82 82.2333C211.144 81.5129 212.819 81.8291 214.124 82.4325C215.593 83.1118 216.856 84.153 218.215 85.0208C221.196 86.9093 224.567 88.0746 228.067 88.4257C228.679 88.4889 228.675 87.5191 228.067 87.4563C226.128 87.2534 224.224 86.7895 222.406 86.0767C220.607 85.3389 218.9 84.3905 217.319 83.251C215.72 82.1413 214.049 81.0634 212.069 80.88C211.27 80.7856 210.461 80.9069 209.723 81.2317C208.986 81.5565 208.347 82.0731 207.87 82.729C207.447 83.316 207.163 83.9942 207.042 84.7107C206.921 85.4271 206.965 86.1622 207.171 86.8584C207.42 87.5864 207.855 88.2347 208.432 88.7373C209.009 89.2399 209.707 89.5788 210.455 89.7196C211.175 89.8574 211.92 89.7642 212.586 89.453C213.251 89.1418 213.804 88.6282 214.167 87.9837C214.896 86.7084 214.872 84.9952 213.772 83.9378C213.456 83.6133 213.061 83.3793 212.627 83.2599C212.193 83.1404 211.736 83.1397 211.301 83.2578C210.901 83.3946 210.549 83.6466 210.288 83.9828C210.027 84.319 209.868 84.7249 209.832 85.1508C209.726 86.8063 212.047 87.6341 212.935 86.2132C213.265 85.6844 212.437 85.1975 212.108 85.724Z" fill="#3F3D56"/>
<path d="M20.4948 137.819L19.2299 139.425L14.7559 136.746L16.0207 135.14L20.4948 137.819Z" fill="#E4E4E4"/>
<path d="M25.1632 144.721L26.2806 146.408L21.5805 148.774L20.4631 147.087L25.1632 144.721Z" fill="#E4E4E4"/>
<path d="M30.0287 137.384L32.2616 137.464L32.0394 142.192L29.8065 142.112L30.0287 137.384Z" fill="#E4E4E4"/>
<path d="M73.1715 9.86442L71.9066 11.4706L67.4326 8.79199L68.6975 7.18546L73.1715 9.86442Z" fill="#E4E4E4"/>
<path d="M77.8401 16.7662L78.9574 18.4538L74.2574 20.82L73.14 19.1324L77.8401 16.7662Z" fill="#E4E4E4"/>
<path d="M82.7055 9.42953L84.9383 9.50934L84.7161 14.2378L82.4833 14.158L82.7055 9.42953Z" fill="#E4E4E4"/>
<path d="M197.361 26.6665L196.096 28.2728L191.622 25.5941L192.887 23.9876L197.361 26.6665Z" fill="#E4E4E4"/>
<path d="M202.03 33.5683L203.147 35.256L198.447 37.6222L197.33 35.9345L202.03 33.5683Z" fill="#E4E4E4"/>
<path d="M206.895 26.2316L209.128 26.3114L208.906 31.0399L206.673 30.9601L206.895 26.2316Z" fill="#E4E4E4"/>
<path d="M159.37 3.07899L158.105 4.6852L153.631 2.00656L154.896 0.400024L159.37 3.07899Z" fill="#E4E4E4"/>
<path d="M164.038 9.98071L165.156 11.6684L160.456 14.0345L159.338 12.3469L164.038 9.98071Z" fill="#E4E4E4"/>
<path d="M168.904 2.64404L171.137 2.72385L170.915 7.45235L168.682 7.37254L168.904 2.64404Z" fill="#E4E4E4"/>
<path d="M197.995 123.831L196.73 125.695L201.204 128.805L202.469 126.94L197.995 123.831Z" fill="#E4E4E4"/>
<path d="M202.438 137.698L203.555 139.656L208.255 136.91L207.138 134.951L202.438 137.698Z" fill="#E4E4E4"/>
<path d="M211.781 131.924L214.014 132.016L214.236 126.528L212.003 126.435L211.781 131.924Z" fill="#E4E4E4"/>
<path d="M103.087 208.446L106.954 207.84L104.303 176.562L95.6827 178.178L103.087 208.446Z" fill="#FFB6B6"/>
<path d="M101.905 207.322L109.522 206.13C110.81 205.928 112.124 206.253 113.175 207.032C114.226 207.811 114.928 208.98 115.127 210.283L115.152 210.443L102.68 212.395L101.905 207.322Z" fill="#2F2E41"/>
<path d="M62.4338 208.058L66.3441 208.226L71.1003 180.44L62.4804 180.44L62.4338 208.058Z" fill="#FFB6B6"/>
<path d="M61.4906 206.723L69.1917 207.055H69.192C70.4936 207.111 71.7198 207.688 72.6009 208.659C73.482 209.63 73.9459 210.916 73.8905 212.233L73.8837 212.395L61.2748 211.851L61.4906 206.723Z" fill="#2F2E41"/>
<path d="M70.1327 117.527C69.9481 117.474 69.7593 117.439 69.5684 117.421L72.0062 97.2255L80.2777 79.4967C80.7981 78.3815 80.8812 77.108 80.5104 75.9331C80.1396 74.7583 79.3423 73.7695 78.2795 73.1661C77.2166 72.5628 75.9672 72.3899 74.7834 72.6822C73.5995 72.9745 72.5692 73.7103 71.9002 74.7412C69.7323 78.082 68.0924 81.7444 67.0397 85.5966L63.5646 98.3134L66.1057 120.121C66.0082 120.736 66.0883 121.366 66.3364 121.936C66.5844 122.506 66.9899 122.991 67.5039 123.333C68.0179 123.674 68.6185 123.859 69.2336 123.863C69.8487 123.868 70.452 123.693 70.9709 123.358C71.4897 123.024 71.9021 122.545 72.1584 121.979C72.4147 121.413 72.5039 120.784 72.4153 120.168C72.3268 119.552 72.0642 118.975 71.6593 118.507C71.2543 118.038 70.7242 117.698 70.1327 117.527Z" fill="#FFB6B6"/>
<path d="M75.155 98.9349L64.7046 86.8353L69.8817 74.511C70.5596 72.8971 71.8338 71.6153 73.4325 70.9391C75.0312 70.2629 76.8277 70.2458 78.4386 70.8916C80.0495 71.5373 81.3473 72.7946 82.055 74.3953C82.7628 75.996 82.8243 77.8133 82.2266 79.4593L75.155 98.9349Z" fill="#B14AED"/>
<path d="M92.5267 60.3622C95.041 55.7071 93.3506 49.8706 88.7513 47.326C84.1519 44.7813 78.3852 46.4921 75.8709 51.1471C73.3567 55.8021 75.047 61.6387 79.6464 64.1833C84.2458 66.728 90.0125 65.0172 92.5267 60.3622Z" fill="#FFB6B6"/>
<path d="M85.7858 44.0844H79.6549C75.6355 44.0844 72.3772 47.7944 72.3772 52.3709L72.6609 63.4714C77.0039 64.0182 81.2517 65.1681 85.2845 66.8886L85.8568 64.4153L86.9855 67.6726C87.9894 68.1649 88.9848 68.7032 89.9717 69.2875C88.8198 63.8103 88.3458 58.3459 89.1366 54.101H91.2131V51.801L91.9181 54.101H95.6827C95.6827 52.7856 95.4267 51.4831 94.9293 50.2678C94.432 49.0525 93.703 47.9483 92.784 47.0182C91.865 46.088 90.774 45.3502 89.5732 44.8468C88.3725 44.3435 87.0855 44.0844 85.7858 44.0844Z" fill="#2F2E41"/>
<path d="M105.777 178.262L104.888 178.478L104.143 164.445L98.7156 122.44L92.4902 106.446L95.5231 95.2984C95.5231 95.2984 99.0349 87.5436 90.2554 81.566L83.2318 69.6106C78.3802 66.4 74.3884 68.4993 72.2606 73.9566C70.4065 78.7116 68.9672 84.7272 69.8232 90.9363C71.7407 104.845 73.335 106.446 73.335 106.446C73.335 106.446 61.363 119.855 63.917 136.981L62.4936 181.32L61.1913 181.266L61.0487 184.788L72.4257 185.26L72.5683 181.738L71.6246 181.699L75.7294 164.122L81.7952 140.858L92.3306 169.292L95.8742 180.675L94.7067 180.96L95.5222 184.387L106.592 181.688L105.777 178.262Z" fill="#B14AED"/>
<path d="M113.595 98.6408C113.466 98.7844 113.35 98.9395 113.249 99.1042L96.4868 87.8736L84.5115 72.4627C83.7583 71.4932 82.6697 70.8489 81.4656 70.6598C80.2614 70.4706 79.0311 70.7507 78.0229 71.4435C77.0147 72.1363 76.3036 73.1902 76.033 74.3928C75.7625 75.5954 75.9525 76.857 76.5649 77.9234C78.5492 81.379 81.0539 84.5002 83.9886 87.1746L93.6767 96.0031L114.089 103.446C114.589 103.809 115.181 104.018 115.796 104.048C116.41 104.078 117.02 103.928 117.552 103.615C118.084 103.302 118.515 102.841 118.794 102.286C119.073 101.731 119.187 101.106 119.124 100.487C119.06 99.8681 118.821 99.2807 118.435 98.7958C118.05 98.3109 117.534 97.9491 116.949 97.7541C116.365 97.559 115.738 97.5389 115.143 97.6962C114.548 97.8535 114.01 98.1815 113.595 98.6408Z" fill="#FFB6B6"/>
<path d="M99.4047 85.7863L84.0402 89.8425L75.4595 79.6483C74.3358 78.3134 73.7721 76.5869 73.8887 74.8372C74.0053 73.0875 74.7929 71.4533 76.0834 70.2831C77.374 69.113 79.0653 68.4997 80.7964 68.5741C82.5275 68.6485 84.1613 69.4047 85.3492 70.6814L99.4047 85.7863Z" fill="#B14AED"/>
<path d="M218.495 212.724H11.8444C11.7435 212.724 11.6469 212.683 11.5756 212.611C11.5043 212.539 11.4642 212.441 11.4642 212.339C11.4642 212.237 11.5043 212.139 11.5756 212.067C11.6469 211.995 11.7435 211.955 11.8444 211.955H218.495C218.596 211.955 218.693 211.995 218.764 212.067C218.835 212.139 218.875 212.237 218.875 212.339C218.875 212.441 218.835 212.539 218.764 212.611C218.693 212.683 218.596 212.724 218.495 212.724Z" fill="#CACACA"/>
</g>
<defs>
<clipPath id="clip0_599_4041">
<rect width="285" height="228" fill="white" transform="translate(0 0.400024)"/>
</clipPath>
</defs>
</svg>
