<svg width="47" height="46" viewBox="0 0 47 46" fill="none" xmlns="http://www.w3.org/2000/svg">
<path d="M46.4968 23.0008C46.4968 34.6172 37.8863 44.2208 26.7005 45.7792C25.6546 45.9242 24.5846 46 23.4984 46C22.2446 46 21.0134 45.9001 19.8144 45.7067C8.86393 43.9436 0.5 34.448 0.5 23.0008C0.5 10.2981 10.7978 0 23.5 0C36.2022 0 46.5 10.2981 46.5 23.0008H46.4968Z" fill="#1877F7"/>
<path d="M26.7004 18.469V23.4795H32.8985L31.917 30.2289H26.7004V45.7792C25.6545 45.9243 24.5845 46 23.4983 46C22.2445 46 21.0133 45.9001 19.8143 45.7067V30.2289H14.0981V23.4795H19.8143V17.3489C19.8143 13.5455 22.8972 10.4609 26.7021 10.4609V10.4642C26.7133 10.4642 26.723 10.4609 26.7343 10.4609H32.9001V16.2982H28.8712C27.6738 16.2982 26.7021 17.27 26.7021 18.4674L26.7004 18.469Z" fill="white"/>
</svg>
